<?xml version="1.0" encoding="UTF-8"?>
<!DOCTYPE svg PUBLIC "-//W3C//DTD SVG 1.1//EN" "http://www.w3.org/Graphics/SVG/1.1/DTD/svg11.dtd">
<!-- Creator: CorelDRAW X8 -->
<svg xmlns="http://www.w3.org/2000/svg" xml:space="preserve" width="5.09546in" height="0.941075in" version="1.1" style="shape-rendering:geometricPrecision; text-rendering:geometricPrecision; image-rendering:optimizeQuality; fill-rule:evenodd; clip-rule:evenodd"
viewBox="0 0 5652 1044"
 xmlns:xlink="http://www.w3.org/1999/xlink">
 <defs>
  <style type="text/css">
   <![CDATA[
    .fil4 {fill:none}
    .fil2 {fill:#07213A}
    .fil3 {fill:#ED3394}
    .fil0 {fill:#07213A;fill-rule:nonzero}
    .fil1 {fill:#ED3394;fill-rule:nonzero}
   ]]>
  </style>
 </defs>
 <g id="Layer_x0020_1">
  <metadata id="CorelCorpID_0Corel-Layer"/>
  <g id="_996913616">
   <path class="fil0" d="M1426 303l-8 17c-18,-15 -41,-23 -67,-23 -68,0 -116,48 -116,117 0,69 48,118 116,118 25,0 48,-8 66,-23l7 15 59 0 0 -221 -57 0zm-65 162c-29,0 -50,-22 -50,-51 0,-29 21,-50 50,-50 29,0 49,21 49,50 0,29 -20,51 -49,51z"/>
   <polygon class="fil0" points="1531,524 1607,524 1607,303 1531,303 "/>
   <path class="fil1" d="M1608 237c0,21 -17,38 -38,38 -21,0 -38,-17 -38,-38 0,-21 17,-39 38,-39 21,0 38,18 38,39z"/>
   <path class="fil1" d="M1963 524l115 0 -153 -380 -102 0 -150 380 113 0 21 -62 135 0 21 62zm-47 -144l-83 0 41 -118 42 118zm345 154c97,0 166,-63 166,-157l0 -233 -107 0 0 232c0,37 -24,61 -59,61 -34,0 -58,-24 -58,-61l0 -232 -107 0 0 233c0,94 69,157 165,157zm441 -10l117 0 -76 -138c37,-23 60,-61 60,-107 0,-80 -59,-135 -141,-135l-165 0 0 381 105 0 0 -116 38 0 62 115zm-100 -286l48 0c29,0 46,17 46,41 0,24 -17,41 -46,41l-48 0 0 -82zm513 286l116 0 -153 -380 -103 0 -149 380 112 0 21 -62 135 0 21 62zm-46 -144l-84 0 42 -118 42 118z"/>
   <path class="fil0" d="M3598 238l0 -94 -242 0 0 380 106 0 0 -133 123 0 0 -92 -123 0 0 -60 136 -1zm202 200c77,-89 94,-124 94,-170 0,-68 -52,-115 -129,-115 -79,0 -127,48 -127,121l0 7 95 0 0 -7c0,-22 13,-36 33,-36 19,0 31,13 31,33 0,31 -20,59 -165,230l0 22 269 0 0 -86 -101 1z"/>
   <path class="fil2" d="M809 670c18,-24 33,-51 43,-78l-104 0c-10,17 -22,35 -38,50 -93,93 -244,93 -337,0 -93,-93 -93,-244 0,-337 93,-93 244,-93 337,0 16,15 28,32 38,50l104 0c-16,-42 -41,-82 -75,-117 -130,-129 -341,-129 -470,0 -130,130 -130,341 0,470 118,118 301,129 431,33l111 111c20,19 51,19 71,0 20,-20 20,-52 0,-71l-111 -111z"/>
   <path class="fil3" d="M998 437c-10,0 -17,-8 -17,-17 0,-10 7,-17 17,-17 9,0 17,7 17,17 0,9 -8,17 -17,17zm-101 65c9,0 17,7 17,17 0,9 -8,17 -17,17 -10,0 -18,-8 -18,-17 0,-10 8,-17 18,-17zm101 -139c-24,0 -45,16 -53,37l-235 0c-9,-20 -21,-40 -38,-56 -72,-72 -188,-72 -260,0 -72,71 -72,188 0,260 72,72 188,72 260,0 19,-19 32,-42 41,-65l131 0c8,21 28,37 53,37 31,0 56,-26 56,-57 0,-31 -25,-56 -56,-56 -25,0 -45,15 -53,36l-161 0 -25 0c-5,22 -15,43 -32,59 -46,47 -122,47 -169,0 -46,-46 -46,-122 0,-169 47,-46 122,-46 169,0 15,15 24,32 30,51l14 0 275 0c8,21 29,37 53,37 31,0 56,-26 56,-57 0,-31 -25,-57 -56,-57z"/>
   <path class="fil2" d="M605 474c0,34 -28,63 -63,63 -35,0 -64,-29 -64,-63 0,-35 29,-64 64,-64 35,0 63,29 63,64z"/>
   <path class="fil0" d="M1330 867c31,0 55,-12 72,-27l0 -71 -73 0 0 26 44 0 0 32c-11,7 -26,12 -42,12 -34,0 -58,-25 -58,-60l0 -1c0,-33 24,-60 56,-60 21,0 34,7 47,18l19 -22c-17,-15 -35,-24 -65,-24 -51,0 -88,41 -88,89l0 0c0,50 35,88 88,88zm166 0c24,0 40,-10 53,-24l-18 -16c-10,10 -20,16 -35,16 -19,0 -33,-12 -37,-33l95 0c0,-3 0,-6 0,-8 0,-37 -20,-69 -61,-69 -37,0 -63,30 -63,67l0 0c0,40 29,67 66,67zm-37 -76c3,-20 16,-34 34,-34 19,0 30,15 32,34l-66 0zm125 73l30 0 0 -73c0,-20 11,-32 29,-32 17,0 27,12 27,32l0 73 29 0 0 -82c0,-30 -16,-49 -45,-49 -20,0 -32,10 -40,22l0 -20 -30 0 0 129zm146 -60l72 0 0 -29 -72 0 0 29zm83 60l31 0 18 -41 80 0 17 41 32 0 -75 -172 -28 0 -75 172zm60 -68l29 -68 29 68 -58 0zm149 68l30 0 0 -171 -30 0 0 171zm149 0l29 0 0 -55 34 0c38,0 68,-20 68,-58l0 -1c0,-34 -24,-57 -64,-57l-67 0 0 171zm29 -82l0 -61 35 0c23,0 37,10 37,30l0 1c0,17 -14,30 -37,30l-35 0zm190 85c39,0 68,-31 68,-67l0 -1c0,-36 -28,-66 -68,-66 -39,0 -69,30 -69,67l0 0c0,37 29,67 69,67zm0 -26c-23,0 -39,-19 -39,-41l0 -1c0,-22 15,-41 39,-41 23,0 39,19 39,42l0 0c0,22 -15,41 -39,41zm123 24l27 0 29 -88 28 88 27 0 42 -130 -30 0 -26 88 -29 -88 -25 0 -28 88 -26 -88 -30 0 41 130zm232 2c23,0 40,-10 52,-24l-17 -16c-10,10 -20,16 -35,16 -19,0 -34,-12 -37,-33l95 0c0,-3 0,-6 0,-8 0,-37 -21,-69 -61,-69 -37,0 -63,30 -63,67l0 0c0,40 29,67 66,67zm-37 -76c3,-20 15,-34 33,-34 20,0 31,15 33,34l-66 0zm125 73l29 0 0 -49c0,-34 18,-51 44,-51l2 0 0 -31c-23,-1 -38,12 -46,31l0 -29 -29 0 0 129zm155 3c24,0 40,-10 53,-24l-18 -16c-10,10 -20,16 -35,16 -19,0 -33,-12 -37,-33l95 0c0,-3 0,-6 0,-8 0,-37 -20,-69 -61,-69 -37,0 -63,30 -63,67l0 0c0,40 29,67 66,67zm-37 -76c3,-20 16,-34 34,-34 19,0 30,15 32,34l-66 0zm178 75c21,0 34,-10 44,-24l0 22 29 0 0 -178 -29 0 0 69c-9,-12 -23,-22 -44,-22 -31,0 -60,24 -60,66l0 1c0,42 30,66 60,66zm7 -25c-20,0 -37,-16 -37,-41l0 -1c0,-25 17,-41 37,-41 20,0 37,16 37,41l0 1c0,24 -17,41 -37,41zm180 23l127 0 0 -27 -97 0 0 -46 85 0 0 -27 -85 0 0 -44 96 0 0 -27 -126 0 0 171zm160 0l29 0 0 -73c0,-20 12,-32 29,-32 17,0 27,12 27,32l0 73 30 0 0 -82c0,-30 -17,-49 -46,-49 -20,0 -32,10 -40,22l0 -20 -29 0 0 129zm194 2c11,0 19,-2 26,-7l0 -24c-6,3 -12,5 -18,5 -10,0 -16,-5 -16,-16l0 -63 35 0 0 -26 -35 0 0 -35 -29 0 0 35 -17 0 0 26 17 0 0 67c0,28 15,38 37,38zm112 1c23,0 40,-10 52,-24l-17 -16c-10,10 -20,16 -35,16 -19,0 -34,-12 -37,-33l95 0c0,-3 0,-6 0,-8 0,-37 -21,-69 -61,-69 -37,0 -63,30 -63,67l0 0c0,40 29,67 66,67zm-37 -76c3,-20 15,-34 33,-34 20,0 31,15 33,34l-66 0zm125 73l29 0 0 -49c0,-34 18,-51 44,-51l2 0 0 -31c-23,-1 -38,12 -46,31l0 -29 -29 0 0 129zm100 39l30 0 0 -59c9,12 22,22 44,22 30,0 59,-24 59,-66l0 -1c0,-43 -29,-66 -59,-66 -21,0 -35,10 -44,24l0 -22 -30 0 0 168zm67 -62c-20,0 -38,-17 -38,-41l0 -1c0,-24 18,-41 38,-41 20,0 36,16 36,41l0 1c0,25 -16,41 -36,41zm97 23l29 0 0 -49c0,-34 18,-51 44,-51l2 0 0 -31c-23,-1 -38,12 -46,31l0 -29 -29 0 0 129zm101 -148l31 0 0 -28 -31 0 0 28zm1 148l29 0 0 -129 -29 0 0 129zm112 2c27,0 48,-13 48,-40l0 -1c0,-23 -21,-31 -40,-37 -15,-5 -29,-9 -29,-18l0 -1c0,-7 6,-13 18,-13 11,0 24,5 36,13l12 -21c-14,-9 -31,-15 -47,-15 -26,0 -46,15 -46,39l0 1c0,24 21,32 40,37 15,5 29,9 29,18l0 1c0,8 -8,14 -20,14 -13,0 -28,-6 -42,-16l-14 20c17,13 37,19 55,19zm137 1c23,0 40,-10 52,-24l-17 -16c-10,10 -20,16 -35,16 -19,0 -34,-12 -37,-33l95 0c0,-3 0,-6 0,-8 0,-37 -20,-69 -61,-69 -37,0 -63,30 -63,67l0 0c0,40 29,67 66,67zm-37 -76c3,-20 15,-34 33,-34 20,0 31,15 33,34l-66 0zm261 75c36,0 61,-19 61,-51l0 0c0,-28 -19,-41 -55,-50 -33,-8 -40,-14 -40,-27l0 0c0,-12 10,-21 27,-21 16,0 31,7 47,18l16 -23c-18,-13 -37,-21 -62,-21 -34,0 -58,20 -58,49l0 1c0,31 20,42 56,51 32,7 39,14 39,26l0 0c0,13 -12,22 -30,22 -21,0 -38,-8 -54,-22l-18 21c20,18 45,27 71,27zm152 1c23,0 40,-10 52,-24l-17 -16c-10,10 -21,16 -35,16 -19,0 -34,-12 -37,-33l95 0c0,-3 0,-6 0,-8 0,-37 -21,-69 -62,-69 -36,0 -62,30 -62,67l0 0c0,40 28,67 66,67zm-37 -76c3,-20 15,-34 33,-34 20,0 31,15 33,34l-66 0zm162 75c19,0 33,-8 42,-18l0 16 28 0 0 -76c0,-17 -4,-31 -14,-40 -9,-9 -23,-14 -42,-14 -21,0 -34,4 -49,10l8 23c12,-5 23,-8 37,-8 21,0 32,10 32,28l0 3c-10,-3 -20,-5 -35,-5 -31,0 -53,14 -53,41l0 1c0,26 22,39 46,39zm8 -21c-14,0 -25,-7 -25,-19l0 -1c0,-13 11,-21 30,-21 12,0 22,2 29,5l0 9c0,16 -14,27 -34,27zm98 19l29 0 0 -49c0,-34 18,-51 44,-51l2 0 0 -31c-23,-1 -38,12 -46,31l0 -29 -29 0 0 129zm155 3c25,0 40,-10 53,-24l-18 -18c-9,10 -19,16 -33,16 -23,0 -39,-18 -39,-41l0 -1c0,-22 16,-41 37,-41 15,0 25,7 34,16l18 -19c-12,-13 -27,-22 -51,-22 -39,0 -67,30 -67,67l0 0c0,37 28,67 66,67zm80 -3l29 0 0 -73c0,-20 12,-32 29,-32 18,0 28,12 28,32l0 73 29 0 0 -82c0,-30 -17,-49 -46,-49 -20,0 -31,10 -40,22l0 -69 -29 0 0 178z"/>
  </g>
  <rect class="fil4" width="5652" height="1044"/>
 </g>
</svg>
